<?xml version="1.0" encoding="UTF-8" standalone="no"?>
<!-- Created with Inkscape (http://www.inkscape.org/) -->

<svg
   width="103.99998"
   height="103.99998"
   viewBox="0 0 27.516662 27.516662"
   version="1.1"
   id="svg5"
   xmlns="http://www.w3.org/2000/svg"
   xmlns:svg="http://www.w3.org/2000/svg">
  <defs
     id="defs2" />
  <g
     id="layer1"
     transform="translate(0.52916503,0.52916503)">
    <path
       style="color:#000000;fill:#000000;stroke-linecap:round;-inkscape-stroke:none"
       d="M 8.2558594,8.8378906 A 0.52916503,0.52916503 0 0 0 7.5136719,8.9433594 0.52916503,0.52916503 0 0 0 7.6191406,9.6835938 L 18.203125,17.621094 a 0.52916503,0.52916503 0 0 0 0.740234,-0.105469 0.52916503,0.52916503 0 0 0 -0.105468,-0.740234 z"
       id="path247" />
    <path
       style="color:#000000;fill:#000000;stroke-linecap:round;-inkscape-stroke:none"
       d="M 18.203125,8.8378906 7.6191406,16.775391 a 0.52916503,0.52916503 0 0 0 -0.1054687,0.740234 0.52916503,0.52916503 0 0 0 0.7421875,0.105469 L 18.837891,9.6835938 A 0.52916503,0.52916503 0 0 0 18.943359,8.9433594 0.52916503,0.52916503 0 0 0 18.203125,8.8378906 Z"
       id="path2537" />
    <g
       id="path3038">
      <path
         style="color:#000000;fill:#000000;-inkscape-stroke:none"
         d="M 5.6582031,9.1074219 4.9257812,9.4121094 11.539063,25.287109 12.273438,24.982422 Z"
         id="path4" />
      <g
         id="g2">
        <path
           id="path3"
           style="color:#000000;fill:#000000;-inkscape-stroke:none"
           d="m 12.272596,24.982772 -0.213702,0.51899 -0.51899,-0.213702 0.358714,-0.170961 z" />
        <path
           id="path2"
           style="color:#000000;fill:#000000;-inkscape-stroke:none"
           d="M 4.9253205,9.4130608 5.1390224,8.8940705 5.6580127,9.1077724 5.2992988,9.2787339 Z" />
      </g>
    </g>
    <g
       id="path3105">
      <path
         style="color:#000000;fill:#000000;-inkscape-stroke:none"
         d="M 11.539063,1.1699219 4.9257812,17.044922 5.6582031,17.349609 12.273438,1.4746094 Z"
         id="path7" />
      <g
         id="g5">
        <path
           id="path6"
           style="color:#000000;fill:#000000;-inkscape-stroke:none"
           d="M 11.539904,1.1702724 12.058894,0.95657045 12.272596,1.4755608 11.898618,1.3412339 Z" />
        <path
           id="path5"
           style="color:#000000;fill:#000000;-inkscape-stroke:none"
           d="m 5.6580127,17.35056 -0.5189903,0.213702 -0.2137019,-0.51899 0.3739783,0.134327 z" />
      </g>
    </g>
    <g
       id="path3107">
      <path
         style="color:#000000;fill:#000000;-inkscape-stroke:none"
         d="m 19.488281,5.1132812 -4.05664,8.1152348 4.05664,8.115234 0.710938,-0.355469 -3.88086,-7.759765 3.88086,-7.759766 z"
         id="path10" />
      <g
         id="g8">
        <path
           id="path9"
           style="color:#000000;fill:#000000;-inkscape-stroke:none"
           d="m 20.198726,20.989178 -0.177488,0.532464 -0.532464,-0.177488 0.346102,-0.195237 z" />
        <path
           id="path8"
           style="color:#000000;fill:#000000;-inkscape-stroke:none"
           d="m 19.488774,5.1141787 0.532464,-0.1774879 0.177488,0.5324637 -0.36385,-0.1597391 z" />
      </g>
    </g>
    <path
       style="color:#000000;fill:#006cb8;stroke-linecap:square;-inkscape-stroke:none;fill-opacity:1"
       d="m 13.228516,-0.52929687 c -7.5922414,0 -13.75781287,6.16557147 -13.75781287,13.75781287 0,7.592241 6.16557147,13.759765 13.75781287,13.759765 7.592241,0 13.759765,-6.167524 13.759765,-13.759765 0,-7.5922414 -6.167524,-13.75781287 -13.759765,-13.75781287 z m 0,1.05859374 c 7.020277,10e-9 12.701171,5.67894113 12.701171,12.69921913 0,7.020277 -5.680894,12.701171 -12.701171,12.701171 -7.020278,0 -12.69921913,-5.680894 -12.69921913,-12.701171 C 0.52929688,6.208238 6.208238,0.52929687 13.228516,0.52929687 Z"
       id="path4100" />
  </g>
</svg>
